<svg xmlns="http://www.w3.org/2000/svg" viewBox="0 0 442 898.02"><defs><style>.cls-1{fill:#231f20;}.cls-2{fill:#f26c52;}</style></defs><title>PsmIconAsset 12</title><g id="Layer_2" data-name="Layer 2"><g id="Layer_1-2" data-name="Layer 1"><polygon class="cls-1" points="442 227.98 382.16 227.98 336.12 329.63 289.77 227.98 230.21 227.98 230.21 439.8 442 439.8 442 227.98"/><polygon class="cls-1" points="213.99 133.71 184.88 162.57 140.13 162.57 140.13 211.81 2.2 211.81 2.2 0 184.88 0 213.99 29.13 213.99 133.71"/><polygon class="cls-1" points="213.99 330.99 146.98 292.08 213.99 292.08 213.99 228.01 31.04 228.01 2.2 257.13 2.2 337.08 69.23 375.74 2.2 375.74 2.2 439.8 184.88 439.8 213.99 410.94 213.99 330.99"/><path class="cls-2" d="M406.82,694.61C406.82,807,315.75,898,203.41,898S0,807,0,694.61s91.07-203.4,203.41-203.4S406.82,582.28,406.82,694.61Z"/><path class="cls-1" d="M203.41,841.4a145.81,145.81,0,0,1-116.7-57.74c-2.87-3.75-5.58-7.69-8.07-11.7-2.06-3.31-4-6.75-5.8-10.23q-1.07-2.07-2.07-4.19c-.87-1.81-1.7-3.66-2.49-5.53-.34-.79-.66-1.56-1-2.33a20.34,20.34,0,0,1,37.7-15.3c.23.58.46,1.15.7,1.71.57,1.33,1.17,2.66,1.8,4,.48,1,1,2,1.49,3,1.3,2.52,2.71,5,4.19,7.39C115,753.4,117,756.25,119,759a106.1,106.1,0,1,0,84.37-170.45c-1.23,0-2.44,0-3.66.06-1.52.06-3,.14-4.55.25-1,.08-2.07.18-3.09.29s-2.28.26-3.42.41a20.34,20.34,0,0,1-5.57-40.3c1.57-.21,3.14-.41,4.72-.57,1.42-.15,2.85-.28,4.28-.39,2-.16,4.14-.27,6.24-.34,1.68-.06,3.36-.09,5-.09,80.93,0,146.78,65.85,146.78,146.78S284.34,841.4,203.41,841.4Z"/><path class="cls-1" d="M331.7,484.14a4.35,4.35,0,1,1,0,8.69,4.36,4.36,0,0,1-4.3-4.3A4.4,4.4,0,0,1,331.7,484.14Z"/><path class="cls-1" d="M360.12,477,350,461.67a.84.84,0,0,1,.73-1.32h5.94a.93.93,0,0,1,.74.41l6.36,9.38,6.35-9.38a.85.85,0,0,1,.74-.41h5.94a.85.85,0,0,1,.74,1.32L367.3,476.91V491.5a.9.9,0,0,1-.87.87H361a.86.86,0,0,1-.86-.87Z"/><path class="cls-1" d="M394.58,461.22a.9.9,0,0,1,.87-.87h5.49a.9.9,0,0,1,.87.87V491.5a.9.9,0,0,1-.87.87h-5.49a.9.9,0,0,1-.87-.87Z"/><path class="cls-1" d="M423.06,461.22a.87.87,0,0,1,.87-.87h5.44a.9.9,0,0,1,.87.87v24.43h10.89a.87.87,0,0,1,.87.86v5a.87.87,0,0,1-.87.87h-17.2a.87.87,0,0,1-.87-.87Z"/><path class="cls-1" d="M136.81,589.38A20.33,20.33,0,0,1,116.47,569V476.36A20.34,20.34,0,0,1,136.81,456H291.65a20.34,20.34,0,1,1,0,40.68H157.15V569A20.34,20.34,0,0,1,136.81,589.38Z"/></g></g></svg>