<svg xmlns="http://www.w3.org/2000/svg" viewBox="0 0 503.74 80.48"><defs><style>.cls-1{fill:#231f20;}</style></defs><title>PsmIconAsset 32</title><g id="Layer_2" data-name="Layer 2"><g id="Layer_1-2" data-name="Layer 1"><path class="cls-1" d="M59.79,72.7,74.36,4.12H91.13c10,0,15.62,6.29,13.43,16.76-1.62,7.53-7,12.58-14.29,15.53,8.29,2.57,12.1,9,10.1,18.19-2.1,9.82-10.1,18.1-21,18.1Zm19.72-3.81A17.38,17.38,0,0,0,95.89,54.8c1.72-8.29-2.47-15.91-12.67-15.91H71.41l-6.28,30Zm-.29-33.81c11.72,0,19-5.72,20.86-14.48,1.53-7.33-.38-12.67-11.81-12.67H78.08L72.27,35.08Z"/><path class="cls-1" d="M160.09,4.12l-10.86,51c-2.86,13.53-14.29,19-21.91,19-9.43,0-16.48-7.8-14.29-17.9l11-52h4.48L118.18,52.8c-2.76,13,2.57,17.42,10,17.42,7.81,0,14.38-4.76,16.76-15.9l10.67-50.2Z"/><path class="cls-1" d="M176,4.12h16.29c11.52,0,16.57,7.72,14.19,18.86A25.47,25.47,0,0,1,189.14,42l12,30.67h-5.61L184.76,43.08H172.18L165.89,72.7h-4.47Zm-3,35.15h11.14c6.1,0,15-4.67,17.63-16.67,1.71-8-.68-14.67-10.29-14.67H179.71Z"/><path class="cls-1" d="M251.81,72.7h-5.05L245,51.84H221.71L210.94,72.7H206L244,1.36ZM223.42,48h21.43l-3.42-34.48Z"/><path class="cls-1" d="M305.05,13.84c-3.43-3.72-7.53-7.24-13.43-7.24-6.95,0-13.72,4.76-15.24,12-1.14,5.33.38,9,7.72,14L289.05,36c9.52,6.57,13.62,10.48,11.81,18.95C298.38,66.8,289.05,74,277.33,74c-8.1,0-13.62-3.8-17.14-10.09l4-2.77a15.22,15.22,0,0,0,14,9.06c8,0,15.9-5.91,17.62-14.1,1.33-6.48,1.14-9-9.91-16.48l-5.62-3.81c-5.81-3.91-10.57-8.48-8.76-16.76,2.19-10.29,11.24-16.29,21.15-16.29,6.47,0,12,3.43,15.81,7.71Z"/><polygon class="cls-1" points="349.72 7.93 340.19 7.93 327.24 68.89 336.77 68.89 335.91 72.7 312.38 72.7 313.24 68.89 322.76 68.89 335.72 7.93 326.19 7.93 326.95 4.12 350.48 4.12 349.72 7.93"/><path class="cls-1" d="M367.25,4.12h16.48c12.38,0,18,7.43,15.14,21-3.05,14.47-13.9,20.67-27.34,20.67h-6l-5.71,27h-7.14Zm7.52,35.62c8.29,0,15-5,17-14.57C394,14.41,390,10.12,381.53,10.12h-8.38l-6.28,29.62Z"/><path class="cls-1" d="M442.11,16.5c-3.33-3.71-7.24-7.71-13.14-7.71a13.63,13.63,0,0,0-13.34,10.48c-.76,3.62-.76,6.86,7.24,12.47l4.76,3.34c11.05,7.71,13.62,11.33,11.91,19.33C436.87,66.7,427.16,74,415.16,74c-8.86,0-14.48-4.28-18.39-11.14l6.48-4.38c2.19,5.33,6.57,9.52,13.14,9.52a16.63,16.63,0,0,0,15.82-12.66c1.14-5.53,1-7.34-9.43-14.67L417.44,37c-5.81-4.09-10.86-8.66-9.05-17.24C410.68,9,420.2,2.79,430.49,2.79c7.14,0,12.95,3.81,17.05,8.57Z"/><polygon class="cls-1" points="496.69 4.12 503.74 4.12 489.16 72.7 482.02 72.7 493.07 20.5 492.88 20.5 471.64 54.13 464.78 20.5 464.59 20.7 453.54 72.7 446.4 72.7 460.97 4.12 467.92 4.12 475.07 38.32 496.69 4.12"/><path class="cls-1" d="M27.8,80.48l6.52-29.92H48.45l.85-3.93H35.16l3-14H52.26l.94-3.93H39L45.1,0H41.17L23.78,80.48ZM24.91,0,18.78,28.67H4.65L3.81,32.6H17.94l-3,14H.84L0,50.56H14.13L7.7,80.48h4L28.84,0Z"/></g></g></svg>